<svg xmlns="http://www.w3.org/2000/svg" viewBox="0 0 24 24"><path fill="none" d="M0 0h24v24H0z"/><path fill-rule="evenodd" clip-rule="evenodd" fill="#E5E5E5" d="M20.84 6.468c-.566-2.396-2.627-4.174-5.09-4.174-2.9 0-5.25 2.462-5.25 5.5 0 .197.011.39.03.58C9.634 8.751 9 9.666 9 10.741c0 1.41 1.091 2.553 2.438 2.553h9.3c1.802 0 3.262-1.53 3.262-3.418 0-1.85-1.406-3.35-3.16-3.407"/><path fill="#FFF" d="M3.7 20.676c-1.765 0-3.2-1.43-3.2-3.187 0-1.304.788-2.464 2.009-2.953l.35-.14-.04-.375a7.708 7.708 0 01-.043-.785c0-4.103 3.35-7.442 7.468-7.442a7.44 7.44 0 017.24 5.648l.092.367.378.012c2.417.077 4.31 2.019 4.31 4.42 0 2.446-1.997 4.436-4.45 4.436H3.698z"/><path fill="#1D1D33" d="M10.244 6.294A6.941 6.941 0 0117 11.563l.182.734.757.024c2.146.068 3.827 1.79 3.827 3.92 0 2.17-1.773 3.936-3.952 3.936H3.7A2.696 2.696 0 011 17.489c0-1.1.665-2.076 1.694-2.488l.7-.281-.077-.75a7.084 7.084 0 01-.04-.735c0-3.827 3.125-6.94 6.967-6.94m0-1c-4.4 0-7.968 3.553-7.968 7.94 0 .284.017.563.046.838A3.684 3.684 0 000 17.488a3.694 3.694 0 003.7 3.687h14.113c2.736 0 4.952-2.21 4.952-4.934 0-2.673-2.134-4.836-4.796-4.92a7.957 7.957 0 00-7.725-6.028z"/></svg>