<svg xmlns="http://www.w3.org/2000/svg" viewBox="0 0 24 24"><path fill="none" d="M0 0h24v24H0z"/><path fill-rule="evenodd" clip-rule="evenodd" fill="#0072F5" d="M11.534 20.04a.5.5 0 01-.462-.69l.478-1.156a.5.5 0 11.924.383l-.478 1.154a.5.5 0 01-.462.31m-3.274-.31l.478-1.154a.5.5 0 10-.923-.383l-.479 1.155a.5.5 0 00.924.382m7.472 0l.478-1.154a.501.501 0 00-.27-.654.503.503 0 00-.654.271l-.478 1.155a.5.5 0 10.924.382"/><path fill-rule="evenodd" clip-rule="evenodd" fill="#FFF" d="M5.25 15.5a2.753 2.753 0 01-2.75-2.75c0-1.127.678-2.127 1.727-2.548l.35-.14-.04-.376A6.508 6.508 0 0111 2.5a6.48 6.48 0 016.302 4.933l.09.368.38.011A3.828 3.828 0 0121.5 11.65a3.855 3.855 0 01-3.85 3.85H5.25z"/><path fill="#1D1D33" d="M11 3a5.981 5.981 0 015.816 4.553l.182.735.757.024A3.33 3.33 0 0121 11.65 3.354 3.354 0 0117.65 15H5.25C4.01 15 3 13.99 3 12.75c0-.921.555-1.74 1.413-2.084l.7-.281-.078-.75A6.007 6.007 0 0111 3m0-1a7 7 0 00-6.96 7.738A3.247 3.247 0 005.25 16h12.4A4.35 4.35 0 0022 11.65a4.343 4.343 0 00-4.213-4.337A6.995 6.995 0 0011 2z"/></svg>