<svg xmlns="http://www.w3.org/2000/svg" viewBox="0 0 24 24"><path fill="#E5E5E5" d="M18.404 22a2.98 2.98 0 01-2.12-.878.5.5 0 11.706-.707A2.002 2.002 0 0020.404 19c0-1.103-.897-2-2-2H3.25a.5.5 0 110-1h15.154c1.654 0 3 1.346 3 3s-1.346 3-3 3zm-4.5-1c0-1.654-1.346-3-3-3H3.25a.5.5 0 100 1h7.654c1.103 0 2 .897 2 2s-.897 2-2 2-2-.897-2-2a.5.5 0 10-1 0c0 1.654 1.346 3 3 3s3-1.346 3-3z"/><path fill="none" d="M0 0h24v24H0z"/><path fill-rule="evenodd" clip-rule="evenodd" fill="#FFF" d="M5.25 14.5a2.753 2.753 0 01-2.75-2.75c0-1.127.678-2.127 1.727-2.548l.35-.141-.04-.376A6.508 6.508 0 0111 1.5a6.48 6.48 0 016.302 4.933l.09.368.38.011A3.828 3.828 0 0121.5 10.65a3.855 3.855 0 01-3.85 3.85H5.25z"/><path fill="#1D1D33" d="M11 2a5.981 5.981 0 015.816 4.553l.182.735.757.024A3.33 3.33 0 0121 10.65 3.354 3.354 0 0117.65 14H5.25C4.01 14 3 12.99 3 11.75c0-.921.555-1.74 1.413-2.084l.7-.281-.078-.75A6.007 6.007 0 0111 2m0-1a7 7 0 00-6.96 7.738A3.247 3.247 0 005.25 15h12.4A4.35 4.35 0 0022 10.65a4.343 4.343 0 00-4.213-4.337A6.995 6.995 0 0011 1z"/></svg>