<svg xmlns="http://www.w3.org/2000/svg" viewBox="0 0 24 24"><path fill="none" d="M0 0h24v24H0z"/><linearGradient id="a" gradientUnits="userSpaceOnUse" x1="12" y1="16" x2="12" y2="2"><stop offset=".25" stop-color="#fff" stop-opacity="0"/><stop offset="1" stop-color="#fff"/></linearGradient><path fill-rule="evenodd" clip-rule="evenodd" fill="url(#a)" d="M11 2a6.999 6.999 0 00-6.96 7.738A3.245 3.245 0 002 12.75 3.251 3.251 0 005.25 16h12.4A4.35 4.35 0 0022 11.65a4.342 4.342 0 00-4.213-4.337A6.995 6.995 0 0011 2z"/><linearGradient id="b" gradientUnits="userSpaceOnUse" x1="12" y1="16" x2="12" y2="2"><stop offset=".25" stop-color="#1d1d33" stop-opacity="0"/><stop offset=".7" stop-color="#1d1d33"/></linearGradient><path fill="url(#b)" d="M11 3a5.981 5.981 0 015.816 4.554l.182.735.757.024A3.33 3.33 0 0121 11.65 3.354 3.354 0 0117.65 15H5.25C4.01 15 3 13.991 3 12.75c0-.921.554-1.74 1.412-2.084l.7-.28-.077-.75A6.007 6.007 0 0111 3m0-1a6.999 6.999 0 00-6.96 7.737A3.245 3.245 0 002 12.75 3.251 3.251 0 005.25 16h12.4A4.35 4.35 0 0022 11.65a4.342 4.342 0 00-4.213-4.337A6.995 6.995 0 0011 2z"/><path fill-rule="evenodd" clip-rule="evenodd" fill="#D5DEE8" d="M11.997 21.86c-2.577 0-3.886-.42-5.151-.824-1.247-.4-2.425-.777-4.846-.777a.5.5 0 110-1c2.578 0 3.886.42 5.15.824 1.248.4 2.426.776 4.847.776 2.423 0 3.6-.377 4.849-.776 1.266-.405 2.575-.824 5.154-.824a.5.5 0 110 1c-2.422 0-3.601.377-4.85.777-1.265.404-2.574.823-5.153.823m0-6c-2.577 0-3.886-.419-5.151-.823-1.247-.4-2.425-.777-4.846-.777a.5.5 0 110-1c2.578 0 3.886.42 5.15.824 1.248.4 2.426.776 4.847.776 2.423 0 3.6-.377 4.849-.776 1.266-.405 2.575-.824 5.154-.824a.5.5 0 110 1c-2.422 0-3.601.377-4.85.777-1.265.404-2.574.823-5.153.823m0 3c-2.577 0-3.886-.419-5.151-.823-1.247-.4-2.425-.777-4.846-.777a.5.5 0 110-1c2.578 0 3.886.42 5.15.824 1.248.4 2.426.776 4.847.776 2.423 0 3.6-.377 4.849-.776 1.266-.405 2.575-.824 5.154-.824a.5.5 0 110 1c-2.422 0-3.601.377-4.85.777-1.265.404-2.574.823-5.153.823"/></svg>