<svg xmlns="http://www.w3.org/2000/svg" viewBox="0 0 24 24"><path fill="none" d="M0 0h24v24H0z"/><path fill-rule="evenodd" clip-rule="evenodd" fill="#0072F5" d="M21 12H3c-.552 0-1 1-1 1s.217.719.535.886c.302.159.465.5.465.842V19c0 .553 1 1 1 1s1-.447 1-1v-4c0-.552 1-1 1-1s1 .448 1 1v4c0 .553 1 1 1 1s1-.447 1-1v-4c0-.552 1-1 1-1s1 .448 1 1v6c0 .553 1 1 1 1s1-.447 1-1v-6c0-.552 1-1 1-1s1 .448 1 1v4c0 .553 1 1 1 1s1-.447 1-1v-4c0-.552 1-1 1-1s1 .448 1 1v4c0 .553 1 1 1 1s1-.447 1-1v-4.272c0-.342.162-.683.465-.842C21.783 13.719 22 13 22 13s-.448-1-1-1"/><path fill-rule="evenodd" clip-rule="evenodd" fill="#D5DEE8" d="M19.01 9.813a.5.5 0 01-.271-.654l2.01-4.85a.5.5 0 11.924.383l-2.01 4.85a.5.5 0 01-.654.27M4.72 9.544l2.01-4.85a.5.5 0 00-.923-.383l-2.01 4.85a.5.5 0 10.924.383m3.735 0l2.01-4.85a.5.5 0 00-.924-.383l-2.01 4.85a.5.5 0 00.924.383m3.736 0l2.01-4.85a.5.5 0 10-.924-.383l-2.01 4.85a.5.5 0 10.924.383m3.736 0l2.01-4.85a.5.5 0 00-.924-.384l-2.01 4.85a.5.5 0 00.924.383m1.868 0l.726-1.752a.5.5 0 10-.924-.383l-.726 1.752a.5.5 0 10.924.383m-3.736 0l.726-1.752a.5.5 0 00-.924-.383l-.726 1.753a.5.5 0 10.924.383m-3.736 0l.726-1.753a.5.5 0 00-.923-.383L9.399 9.16a.5.5 0 10.924.383m-3.736 0l.727-1.753a.5.5 0 00-.924-.383L5.664 9.16a.5.5 0 00.924.383m12.603-3.37l.614-1.48a.5.5 0 00-.924-.384l-.614 1.481a.5.5 0 00.924.383m-3.736 0l.614-1.48a.5.5 0 10-.924-.383l-.614 1.48a.5.5 0 10.924.383m-3.735 0l.613-1.48a.5.5 0 00-.924-.383l-.613 1.48a.5.5 0 10.924.383m-3.736 0l.614-1.48a.5.5 0 00-.925-.383L7.06 5.79a.5.5 0 10.924.384"/></svg>