<svg xmlns="http://www.w3.org/2000/svg" viewBox="0 0 24 24"><path fill-rule="evenodd" clip-rule="evenodd" fill="#D5DEE8" d="M11.753 9.526a.5.5 0 01-.462-.691l.478-1.155a.5.5 0 11.924.383l-.478 1.154a.5.5 0 01-.462.309m-3.274-.31l.478-1.153a.5.5 0 10-.923-.383l-.479 1.155a.5.5 0 00.924.382m7.472 0l.478-1.154a.501.501 0 00-.27-.654.503.503 0 00-.654.27l-.478 1.156a.5.5 0 10.924.382"/><path fill="none" d="M0 0h24v24H0z"/><path fill-rule="evenodd" clip-rule="evenodd" fill="#0072F5" d="M21 12H3c-.552 0-1 1-1 1s.448 1 1 1h1c.003.001 1 .449 1 1v2c0 .553 1 1 1 1s1-.447 1-1v-2c0-.551.997-.999 1-1 .003.001 1 .449 1 1v2c0 .553 1 1 1 1s1-.447 1-1v-2c0-.551.997-.999 1-1 .003.001 1 .449 1 1v2c0 .553 1 1 1 1s1-.447 1-1v-2c0-.551.997-.999 1-1 .002.001 1 .449 1 1v2c0 .553 1 1 1 1s1-.447 1-1v-2c0-.551.997-.999 1-1h1c.552 0 1-1 1-1s-.448-1-1-1z"/></svg>