<svg xmlns="http://www.w3.org/2000/svg" viewBox="0 0 24 24"><path fill="none" d="M0 0h24v24H0z"/><path fill-rule="evenodd" clip-rule="evenodd" fill="#0072F5" d="M13.506 20.962l-1.531-3.696-3.695 1.53 1.53 3.697 3.696-1.531zm-3.998-7.375l-1.848.765.766 1.848 1.847-.766-.765-1.847zm-4.71 1.734l-1.848.766.766 1.847 1.847-.764-.765-1.85zM17.49 13.49l-1.848.765.765 1.848 1.848-.765-.765-1.848z"/><path fill-rule="evenodd" clip-rule="evenodd" fill="#D5DEE8" d="M20.472 4.983a.5.5 0 01.924.383l-2.68 6.468a.5.5 0 01-.923-.383l2.679-6.468zm-6.18-2.944a.499.499 0 01.27.653l-3.827 9.238a.5.5 0 11-.924-.382l3.827-9.24a.498.498 0 01.654-.27zM8.162 5.89a.5.5 0 11.925.383l-3.062 7.39a.5.5 0 01-.924-.382L8.163 5.89zm7.944.097a.5.5 0 01.924.383l-3.827 9.239a.5.5 0 11-.924-.383l3.827-9.24z"/></svg>