<svg xmlns="http://www.w3.org/2000/svg" viewBox="0 0 24 24"><path fill="none" d="M0 0h24v24H0z"/><path fill-rule="evenodd" clip-rule="evenodd" fill="#0072F5" d="M13.006 20.962l-1.531-3.696-3.695 1.53 1.53 3.697 3.696-1.531zm-3.498-7.375l-1.848.765.766 1.848 1.847-.766-.765-1.847zm9.98 7.278l-1.531-3.696-3.695 1.53 1.53 3.697 3.696-1.531zM6.1 20.962L4.57 17.266l-3.695 1.53 1.53 3.697 3.696-1.531zm9.889-7.472l-1.848.765.765 1.848 1.848-.765-.765-1.848z"/><path fill-rule="evenodd" clip-rule="evenodd" fill="#D5DEE8" d="M14.292 2.039a.499.499 0 01.27.653l-3.827 9.238a.5.5 0 11-.924-.382l3.827-9.24a.498.498 0 01.654-.27zm1.314 3.949a.5.5 0 01.924.383l-3.827 9.239a.5.5 0 11-.924-.383l3.827-9.24zm6.482-.097a.5.5 0 01.924.383l-3.827 9.239a.5.5 0 11-.924-.383l3.827-9.24zM8.7 5.988a.5.5 0 01.924.383L5.798 15.61a.5.5 0 11-.924-.383L8.7 5.987zm12.073-4.046a.499.499 0 01.27.653l-3.827 9.238a.5.5 0 11-.924-.382l3.827-9.239a.498.498 0 01.654-.27z"/></svg>