<svg xmlns="http://www.w3.org/2000/svg" viewBox="0 0 24 24"><path fill="none" d="M0 0h24v24H0z"/><path fill-rule="evenodd" clip-rule="evenodd" fill="#0072F5" d="M12.264 12.337l-1.847.765.765 1.848 1.847-.765-.764-1.848zm-5.21 1.734l-1.848.767.766 1.847 1.847-.764-.764-1.85zm8.178 1.946l-1.847.765.765 1.848 1.848-.765-.765-1.848z"/><path fill-rule="evenodd" clip-rule="evenodd" fill="#D5DEE8" d="M15.135 5.409a.499.499 0 01.27.653l-1.913 4.619a.5.5 0 11-.925-.383l1.914-4.62a.498.498 0 01.654-.27zM8.889 8.337a.5.5 0 11.924.383l-1.531 3.695a.5.5 0 01-.924-.382l1.53-3.696zm8.943.097a.5.5 0 01.924.383L16.46 14.36a.5.5 0 11-.925-.383l2.297-5.543z"/></svg>