<svg xmlns="http://www.w3.org/2000/svg" viewBox="0 0 24 24"><path fill="none" d="M0 0h24v24H0z"/><path fill-rule="evenodd" clip-rule="evenodd" fill="#FFF" d="M5.25 18.5a2.753 2.753 0 01-2.75-2.75c0-1.126.678-2.126 1.727-2.548l.35-.14-.04-.376A6.508 6.508 0 0111 5.501a6.48 6.48 0 016.302 4.933l.09.367.38.012A3.828 3.828 0 0121.5 14.65a3.855 3.855 0 01-3.85 3.85H5.25z"/><path fill="#1D1D33" d="M11 6a5.981 5.981 0 015.816 4.554l.182.735.757.024A3.33 3.33 0 0121 14.65 3.354 3.354 0 0117.65 18H5.25C4.01 18 3 16.991 3 15.75c0-.92.554-1.739 1.413-2.084l.699-.28-.078-.75A6.007 6.007 0 0111 6m0-1a7 7 0 00-6.96 7.737A3.247 3.247 0 005.25 19h12.4A4.35 4.35 0 0022 14.65a4.343 4.343 0 00-4.212-4.337A6.995 6.995 0 0011 5z"/></svg>