<svg xmlns="http://www.w3.org/2000/svg" viewBox="0 0 24 24"><path fill="none" d="M0 0h24v24H0z"/><path fill-rule="evenodd" clip-rule="evenodd" fill="#FFF" d="M5.25 13.5a2.753 2.753 0 01-2.75-2.75c0-1.126.678-2.126 1.727-2.548l.35-.14-.04-.376A6.508 6.508 0 0111 .5a6.48 6.48 0 016.302 4.933l.09.368.38.012A3.828 3.828 0 0121.5 9.65a3.855 3.855 0 01-3.85 3.85H5.25z"/><path fill="#1D1D33" d="M11 1a5.981 5.981 0 015.816 4.553l.182.736.757.024A3.33 3.33 0 0121 9.65 3.354 3.354 0 0117.65 13H5.25C4.01 13 3 11.99 3 10.75c0-.921.555-1.74 1.413-2.084l.7-.281-.078-.75A6.007 6.007 0 0111 1m0-1a7 7 0 00-6.96 7.738A3.247 3.247 0 005.25 14h12.4A4.35 4.35 0 0022 9.65a4.343 4.343 0 00-4.213-4.337A6.995 6.995 0 0011 0z"/><path fill="#0072F5" d="M6.503 18.286a.499.499 0 01-.683.183l-.817-.472v.944a.5.5 0 11-1 0v-.943l-.816.471a.5.5 0 01-.5-.866l.816-.471-.816-.472a.5.5 0 11.5-.866l.816.471v-.943a.5.5 0 111 0v.944l.817-.472a.5.5 0 01.5.866l-.816.471.816.472a.5.5 0 01.183.683zm14.81-.683l-.816-.471.817-.472a.5.5 0 10-.5-.866l-.817.471v-.943a.5.5 0 10-1 0v.944l-.817-.472a.5.5 0 10-.5.866l.816.472-.816.471a.5.5 0 10.5.866l.817-.472v.944a.5.5 0 101 0v-.943l.816.471a.5.5 0 00.5-.866zm-7.497 0L13 17.132l.816-.472a.5.5 0 10-.5-.866l-.816.471v-.943a.5.5 0 10-1 0v.943l-.816-.471a.5.5 0 00-.5.866l.816.472-.816.471a.5.5 0 10.5.866l.816-.471v.943a.5.5 0 101 0v-.943l.816.471a.5.5 0 00.5-.866zm-3.565 2.228a.5.5 0 00-.683-.183l-.816.47v-.942a.5.5 0 10-1 0v.943l-.817-.472a.5.5 0 10-.5.866l.816.472-.816.471a.5.5 0 10.5.867l.817-.472v.944a.5.5 0 101 0v-.944l.816.472a.5.5 0 00.5-.866l-.816-.472.816-.471a.5.5 0 00.183-.683zm7.497 0a.5.5 0 00-.683-.183l-.817.471v-.943a.5.5 0 10-1 0v.943l-.816-.471a.5.5 0 10-.5.866l.816.471-.816.472a.5.5 0 10.5.866l.816-.471v.943a.5.5 0 101 0v-.944l.817.472a.5.5 0 00.5-.866l-.816-.472.816-.471a.5.5 0 00.183-.683z"/></svg>