<svg xmlns="http://www.w3.org/2000/svg" viewBox="0 0 24 24"><path fill="none" d="M0 0h24v24H0z"/><path fill-rule="evenodd" clip-rule="evenodd" fill="#FFF" d="M5.25 15.5a2.753 2.753 0 01-2.75-2.75c0-1.126.678-2.127 1.727-2.548l.35-.14-.04-.376A6.508 6.508 0 0111 2.5a6.48 6.48 0 016.302 4.933l.09.368.38.011A3.828 3.828 0 0121.5 11.65a3.855 3.855 0 01-3.85 3.85H5.25z"/><path fill="#1D1D33" d="M11 3a5.981 5.981 0 015.816 4.553l.182.735.757.024A3.33 3.33 0 0121 11.65 3.354 3.354 0 0117.65 15H5.25C4.01 15 3 13.99 3 12.75c0-.921.555-1.74 1.413-2.084l.7-.281-.078-.75A6.007 6.007 0 0111 3m0-1a7 7 0 00-6.96 7.738A3.247 3.247 0 005.25 16h12.4A4.35 4.35 0 0022 11.65a4.343 4.343 0 00-4.213-4.337A6.995 6.995 0 0011 2z"/><path fill="#0072F5" d="M6.32 19.66l-.817.471.817.472a.5.5 0 11-.5.866l-.817-.471v.943a.5.5 0 11-1 0v-.944l-.817.472a.5.5 0 01-.5-.866l.817-.471-.817-.472a.5.5 0 11.5-.866l.817.472v-.944a.5.5 0 111 0v.943l.817-.471a.5.5 0 11.5.866zm14.994.943l-.817-.471.817-.472a.5.5 0 10-.5-.866l-.817.472v-.944a.5.5 0 10-1 0v.943l-.817-.47a.5.5 0 00-.5.865l.817.472-.817.471a.5.5 0 10.5.866l.817-.471v.943a.5.5 0 101 0v-.943l.817.471a.5.5 0 00.5-.866zm-7.315-1.626a.499.499 0 00-.682-.183l-.817.471v-.943a.5.5 0 10-1 0v.944l-.817-.472a.5.5 0 00-.5.866l.817.471-.817.472a.5.5 0 10.5.866l.817-.472v.944a.5.5 0 101 0v-.943l.817.47a.5.5 0 00.5-.865L13 20.13l.817-.471a.5.5 0 00.182-.683z"/></svg>