<svg xmlns="http://www.w3.org/2000/svg" viewBox="0 0 24 24"><path fill="none" d="M0 0h24v24H0z"/><path fill-rule="evenodd" clip-rule="evenodd" fill="#0072F5" d="M17.267 22.167a.5.5 0 01-.27-.653l1.626-3.926a.5.5 0 11.924.383l-1.627 3.926a.5.5 0 01-.653.27m-14.29-.27l1.627-3.925a.5.5 0 00-.924-.383l-1.627 3.926a.5.5 0 10.924.383m3.736 0L8.34 17.97a.5.5 0 00-.924-.383l-1.627 3.927a.5.5 0 00.924.383m7.471 0l1.628-3.927a.5.5 0 00-.924-.383l-1.628 3.926a.5.5 0 00.924.383m1.868 0l.343-.829a.5.5 0 10-.924-.383l-.343.829a.5.5 0 10.924.383m-7.471 0l.343-.828A.5.5 0 008 20.686l-.343.829a.5.5 0 10.924.382m-3.736 0l.343-.828a.5.5 0 00-.924-.383l-.343.829a.5.5 0 00.924.383m12.22-2.447l.614-1.48a.5.5 0 00-.924-.383l-.613 1.48a.5.5 0 00.924.383m-7.472.001l.614-1.48a.5.5 0 00-.924-.384L8.67 19.07a.5.5 0 10.924.383m-3.735 0l.613-1.48a.5.5 0 00-.924-.384l-.613 1.481a.5.5 0 00.924.383"/><path fill-rule="evenodd" clip-rule="evenodd" fill="#E5E5E5" d="M20.84 5.175C20.274 2.778 18.213 1 15.75 1c-2.9 0-5.25 2.462-5.25 5.5 0 .196.011.39.03.58C9.634 7.457 9 8.372 9 9.447 9 10.856 10.091 12 11.438 12h9.3C22.54 12 24 10.47 24 8.582c0-1.851-1.406-3.35-3.16-3.408"/><path fill-rule="evenodd" clip-rule="evenodd" fill="#FFF" d="M5.25 15.5a2.753 2.753 0 01-2.75-2.75c0-1.126.678-2.126 1.727-2.548l.35-.14-.04-.376A6.508 6.508 0 0111 2.501a6.48 6.48 0 016.302 4.933l.09.367.38.012A3.828 3.828 0 0121.5 11.65a3.855 3.855 0 01-3.85 3.85H5.25z"/><path fill="#1D1D33" d="M11 3a5.981 5.981 0 015.816 4.554l.182.735.757.024A3.33 3.33 0 0121 11.65 3.354 3.354 0 0117.65 15H5.25C4.01 15 3 13.99 3 12.75c0-.92.554-1.739 1.413-2.084l.699-.28-.077-.75A6.007 6.007 0 0111 3m0-1a7 7 0 00-6.96 7.737A3.247 3.247 0 005.25 16h12.4A4.35 4.35 0 0022 11.65a4.343 4.343 0 00-4.213-4.337A6.995 6.995 0 0011 2z"/><path fill-rule="evenodd" clip-rule="evenodd" fill="#FFD02F" d="M12.642 13.7h2.996a.66.66 0 01.557 1.014l-4.734 7.44a.66.66 0 01-.765.272c-.123-.049-.123-.049-.232-.128a.66.66 0 01-.232-.598l.546-3.953.1-.747H8.36a.66.66 0 01-.652-.76l.915-5.94a.66.66 0 01.652-.56h3.249a.66.66 0 01.65.769l-.533 3.19z"/></svg>