<?xml version="1.0" encoding="iso-8859-1"?>
<!-- Generator: Adobe Illustrator 19.0.0, SVG Export Plug-In . SVG Version: 6.00 Build 0)  -->
<svg version="1.1" id="Layer_1" xmlns="http://www.w3.org/2000/svg" xmlns:xlink="http://www.w3.org/1999/xlink" x="0px" y="0px"
	 viewBox="0 0 512 512" style="enable-background:new 0 0 512 512;" xml:space="preserve">
<g>
	<g>
		<path d="M281.608,86.802V68.133h17.072c3.312,0,6.325-1.921,7.734-4.917c1.408-3.005,0.947-6.547-1.178-9.082l-42.68-51.215
			c-3.244-3.892-9.867-3.892-13.111,0l-42.68,51.215c-2.125,2.544-2.578,6.086-1.178,9.082c1.408,3.005,4.422,4.917,7.734,4.917
			h17.072v18.659c-105.632,12.701-187.79,102.815-187.79,211.81C42.603,416.27,138.333,512,256,512s213.397-95.73,213.397-213.397
			C469.397,189.608,387.239,99.494,281.608,86.802z M111.351,431.182c-30.268-33-49.406-76.337-51.463-124.044h16.858
			c0.154,0,0.282-0.077,0.427-0.085c2.023,43.012,19.189,82.03,46.384,111.923L111.351,431.182z M94.339,308.871l128.687,22.714
			l22.705,128.679C164.504,455.142,99.46,390.099,94.339,308.871z M223.026,265.628L94.339,288.334
			c5.122-81.228,70.165-146.271,151.393-151.393L223.026,265.628z M135.627,166.168l-12.206-12.206
			c33-30.277,76.337-49.414,124.044-51.463v16.858c0,0.154,0.077,0.282,0.085,0.427C204.537,121.807,165.52,138.973,135.627,166.168
			z M417.653,288.334l-128.679-22.706L266.26,136.941C347.488,142.063,412.531,207.106,417.653,288.334z M264.536,494.518v-17.072
			c42.961-2.057,81.962-19.231,111.837-46.401l12.206,12.206C355.597,473.512,312.217,492.453,264.536,494.518z M266.269,460.264
			l22.714-128.687l128.679-22.706C412.54,390.099,347.496,455.142,266.269,460.264z M434.827,290.152
			c-2.023-43.012-19.189-82.03-46.384-111.923l12.206-12.206c30.268,33,49.406,76.345,51.463,124.044h-16.858
			C435.1,290.067,434.972,290.144,434.827,290.152z"/>
	</g>
</g>
<g>
</g>
<g>
</g>
<g>
</g>
<g>
</g>
<g>
</g>
<g>
</g>
<g>
</g>
<g>
</g>
<g>
</g>
<g>
</g>
<g>
</g>
<g>
</g>
<g>
</g>
<g>
</g>
<g>
</g>
</svg>
